<svg width="15" height="16" viewBox="0 0 15 16" fill="none" xmlns="http://www.w3.org/2000/svg">
<path d="M7.5 14.25C6.63542 14.25 5.82292 14.0859 5.0625 13.7578C4.30208 13.4297 3.64062 12.9844 3.07812 12.4219C2.51562 11.8594 2.07031 11.1979 1.74219 10.4375C1.41406 9.67708 1.25 8.86458 1.25 8C1.25 7.13542 1.41406 6.32292 1.74219 5.5625C2.07031 4.80208 2.51562 4.14062 3.07812 3.57812C3.64062 3.01562 4.30208 2.57031 5.0625 2.24219C5.82292 1.91406 6.63542 1.75 7.5 1.75C8.36458 1.75 9.17708 1.91406 9.9375 2.24219C10.6979 2.57031 11.3594 3.01562 11.9219 3.57812C12.4844 4.14062 12.9297 4.80208 13.2578 5.5625C13.5859 6.32292 13.75 7.13542 13.75 8C13.75 8.86458 13.5859 9.67708 13.2578 10.4375C12.9297 11.1979 12.4844 11.8594 11.9219 12.4219C11.3594 12.9844 10.6979 13.4297 9.9375 13.7578C9.17708 14.0859 8.36458 14.25 7.5 14.25ZM7.5 13C8.89583 13 10.0781 12.5156 11.0469 11.5469C12.0156 10.5781 12.5 9.39583 12.5 8C12.5 7.92708 12.4974 7.85156 12.4922 7.77344C12.487 7.69531 12.4844 7.63021 12.4844 7.57812C12.4323 7.88021 12.2917 8.13021 12.0625 8.32813C11.8333 8.52604 11.5625 8.625 11.25 8.625H10C9.65625 8.625 9.36198 8.5026 9.11719 8.25781C8.8724 8.01302 8.75 7.71875 8.75 7.375V6.75H6.25V5.5C6.25 5.15625 6.3724 4.86198 6.61719 4.61719C6.86198 4.3724 7.15625 4.25 7.5 4.25H8.125C8.125 4.01042 8.1901 3.79948 8.32031 3.61719C8.45052 3.4349 8.60938 3.28646 8.79688 3.17188C8.58854 3.11979 8.3776 3.07812 8.16406 3.04688C7.95052 3.01562 7.72917 3 7.5 3C6.10417 3 4.92188 3.48438 3.95313 4.45313C2.98438 5.42188 2.5 6.60417 2.5 8H5.625C6.3125 8 6.90104 8.24479 7.39062 8.73438C7.88021 9.22396 8.125 9.8125 8.125 10.5V11.125H6.25V12.8438C6.45833 12.8958 6.66406 12.9349 6.86719 12.9609C7.07031 12.987 7.28125 13 7.5 13Z" fill="#4A94CC"/>
</svg>
