<svg width="15" height="16" viewBox="0 0 15 16" fill="none" xmlns="http://www.w3.org/2000/svg">
<path d="M7.66667 1.5C5.08667 1.5 3 3.58988 3 6.17386C3 8.95814 5.94667 12.7974 7.16 14.2596C7.42667 14.5801 7.91333 14.5801 8.18 14.2596C9.38667 12.7974 12.3333 8.95814 12.3333 6.17386C12.3333 3.58988 10.2467 1.5 7.66667 1.5ZM7.66667 7.84309C6.74667 7.84309 6 7.09527 6 6.17386C6 5.25244 6.74667 4.50462 7.66667 4.50462C8.58667 4.50462 9.33333 5.25244 9.33333 6.17386C9.33333 7.09527 8.58667 7.84309 7.66667 7.84309Z" fill="#4A94CC"/>
</svg>
