<svg width="15" height="16" viewBox="0 0 15 16" fill="none" xmlns="http://www.w3.org/2000/svg">
<g clip-path="url(#clip0_23_37)">
<path d="M12.0188 10.0375L10.4313 9.85623C10.05 9.81248 9.67503 9.94373 9.40628 10.2125L8.25628 11.3625C6.48753 10.4625 5.03753 9.01873 4.13753 7.24373L5.29378 6.08748C5.56253 5.81873 5.69378 5.44373 5.65003 5.06248L5.46878 3.48748C5.39378 2.85623 4.86253 2.38123 4.22503 2.38123H3.14378C2.43753 2.38123 1.85003 2.96873 1.89378 3.67498C2.22503 9.01248 6.49378 13.275 11.825 13.6062C12.5313 13.65 13.1188 13.0625 13.1188 12.3562V11.275C13.125 10.6437 12.65 10.1125 12.0188 10.0375Z" fill="#4A94CC"/>
</g>
<defs>
<clipPath id="clip0_23_37">
<rect width="15" height="15" fill="white" transform="translate(0 0.5)"/>
</clipPath>
</defs>
</svg>
